<svg width="120" height="120" viewBox="0 0 120 120" fill="none" xmlns="http://www.w3.org/2000/svg">
<g filter="url(#filter0_b)">
<rect x="60" width="60" height="60" rx="16" fill="#E5D3A5"/>
</g>
<g filter="url(#filter1_b)">
<rect y="60" width="60" height="60" rx="16" fill="#E5D3A5"/>
</g>
<path d="M84.7394 48.542C84.6127 48.4997 84.2958 48.225 83.7887 47.7179C83.3239 47.1685 82.8592 46.6191 82.3944 46.0697C81.9718 45.4781 81.7394 45.0555 81.6972 44.8019L74.7254 16.6561L72 14.5642L73.9014 10C74.7465 10.0423 75.7394 10.1268 76.8803 10.2536C78.0211 10.3803 79.0563 10.5494 79.9859 10.7607C80.9577 10.9297 81.5704 11.0988 81.8239 11.2678C82.0775 11.5214 82.3521 11.8595 82.6479 12.2821C82.9437 12.6624 83.1761 13.0217 83.3451 13.3597L89.6197 42.2662L92.9155 43.3439L86.8944 15.5151C86.8099 15.0502 86.831 14.374 86.9577 13.4865C87.1268 12.5568 87.3169 11.6693 87.5282 10.8241H89.3662L94.2465 33.5816C94.2887 33.8352 94.331 34.5959 94.3732 35.8637C94.4577 37.1315 94.5211 38.505 94.5634 39.9842L99.5704 15.7052L96.5916 14.4374V11.0143C97.7324 10.8452 98.9155 10.6762 100.141 10.5071C101.366 10.3381 102.444 10.2113 103.373 10.1268C104.303 10.0423 104.937 10.0211 105.275 10.0634C105.866 10.2324 106.415 10.655 106.923 11.3312C107.472 11.9651 107.831 12.4723 108 12.8526L100.204 42.8368C99.9085 43.4284 99.3803 44.0835 98.6197 44.8019C97.8592 45.4781 96.993 46.1754 96.0211 46.8938C95.0916 47.6123 94.162 48.2462 93.2324 48.7956C92.3028 49.345 91.5 49.7464 90.8239 50C90.2746 49.9577 89.5986 49.8521 88.7958 49.683C87.993 49.514 87.2113 49.3238 86.4507 49.1125C85.7324 48.9012 85.162 48.711 84.7394 48.542Z" fill="#3F6442"/>
<path d="M14.5086 75.6645L11 74.3963V70.9089C11.723 70.8243 12.5736 70.7398 13.5517 70.6552C14.5724 70.5284 15.5718 70.4227 16.55 70.3382C17.5707 70.2114 18.4425 70.1268 19.1655 70.0845C19.931 70 20.4201 69.9789 20.6328 70.0211C21.1856 70.1902 21.7385 70.6341 22.2914 71.3527C22.8443 72.0291 23.1632 72.5363 23.2483 72.8745V104.388L26.119 105.149V75.284C26.119 74.9036 26.2466 74.3118 26.5017 73.5086C26.7994 72.6631 27.1184 71.7543 27.4586 70.782H29.5V87.1413L35.7517 86.8243V75.6645L32.5621 74.3963V70.9089C33.4977 70.782 34.646 70.6552 36.0069 70.5284C37.3678 70.3593 38.6012 70.2325 39.7069 70.148C40.8552 70.0211 41.5782 69.9789 41.8759 70.0211C42.4287 70.1902 42.9816 70.6341 43.5345 71.3527C44.0874 72.0291 44.4063 72.5363 44.4914 72.8745V104.388L48 105.593V109.081C47.277 109.165 46.4052 109.271 45.3845 109.398C44.4063 109.524 43.4069 109.63 42.3862 109.715C41.408 109.841 40.5362 109.926 39.7707 109.968C39.0477 110.011 38.6011 110.011 38.431 109.968C37.8782 109.799 37.304 109.376 36.7086 108.7C36.1557 107.982 35.8368 107.474 35.7517 107.178V92.1506L29.5 91.8336V102.042C29.5 102.296 29.3511 102.761 29.0534 103.437C28.7983 104.071 28.4368 104.811 27.969 105.657L26.1828 109.081C25.2471 109.165 24.1201 109.292 22.8017 109.461C21.4833 109.63 20.2713 109.757 19.1655 109.841C18.1023 109.968 17.4431 110.011 17.1879 109.968C16.6351 109.799 16.0609 109.376 15.4655 108.7C14.9126 107.982 14.5937 107.474 14.5086 107.178V75.6645Z" fill="#3F6442"/>
<defs>
<filter id="filter0_b" x="56" y="-4" width="68" height="68" filterUnits="userSpaceOnUse" color-interpolation-filters="sRGB">
<feFlood flood-opacity="0" result="BackgroundImageFix"/>
<feGaussianBlur in="BackgroundImage" stdDeviation="2"/>
<feComposite in2="SourceAlpha" operator="in" result="effect1_backgroundBlur"/>
<feBlend mode="normal" in="SourceGraphic" in2="effect1_backgroundBlur" result="shape"/>
</filter>
<filter id="filter1_b" x="-4" y="56" width="68" height="68" filterUnits="userSpaceOnUse" color-interpolation-filters="sRGB">
<feFlood flood-opacity="0" result="BackgroundImageFix"/>
<feGaussianBlur in="BackgroundImage" stdDeviation="2"/>
<feComposite in2="SourceAlpha" operator="in" result="effect1_backgroundBlur"/>
<feBlend mode="normal" in="SourceGraphic" in2="effect1_backgroundBlur" result="shape"/>
</filter>
</defs>
</svg>
