<svg width="120" height="120" viewBox="0 0 120 120" fill="none" xmlns="http://www.w3.org/2000/svg">
<g filter="url(#filter0_b)">
<rect y="60" width="60" height="60" rx="16" fill="#E5D3A5"/>
</g>
<g filter="url(#filter1_b)">
<rect x="60" width="60" height="60" rx="16" fill="#E5D3A5"/>
</g>
<path d="M84.7394 108.542C84.6127 108.5 84.2958 108.225 83.7887 107.718C83.3239 107.169 82.8592 106.619 82.3944 106.07C81.9718 105.478 81.7394 105.055 81.6972 104.802L74.7254 76.6561L72 74.5642L73.9014 70C74.7465 70.0423 75.7394 70.1268 76.8803 70.2536C78.0211 70.3803 79.0563 70.5494 79.9859 70.7607C80.9577 70.9297 81.5704 71.0988 81.8239 71.2678C82.0775 71.5214 82.3521 71.8595 82.6479 72.2821C82.9437 72.6624 83.1761 73.0217 83.3451 73.3597L89.6197 102.266L92.9155 103.344L86.8944 75.5151C86.8099 75.0502 86.831 74.374 86.9577 73.4865C87.1268 72.5568 87.3169 71.6693 87.5282 70.8241H89.3662L94.2465 93.5816C94.2887 93.8352 94.331 94.5959 94.3732 95.8637C94.4577 97.1315 94.5211 98.505 94.5634 99.9842L99.5704 75.7052L96.5916 74.4374V71.0143C97.7324 70.8452 98.9155 70.6762 100.141 70.5071C101.366 70.3381 102.444 70.2113 103.373 70.1268C104.303 70.0423 104.937 70.0211 105.275 70.0634C105.866 70.2324 106.415 70.655 106.923 71.3312C107.472 71.9651 107.831 72.4723 108 72.8526L100.204 102.837C99.9085 103.428 99.3803 104.083 98.6197 104.802C97.8592 105.478 96.993 106.175 96.0211 106.894C95.0916 107.612 94.162 108.246 93.2324 108.796C92.3028 109.345 91.5 109.746 90.8239 110C90.2746 109.958 89.5986 109.852 88.7958 109.683C87.993 109.514 87.2113 109.324 86.4507 109.113C85.7324 108.901 85.162 108.711 84.7394 108.542Z" fill="#E5D3A5"/>
<path d="M14.5086 15.6645L11 14.3963V10.9089C11.723 10.8243 12.5736 10.7398 13.5517 10.6552C14.5724 10.5284 15.5718 10.4227 16.55 10.3382C17.5707 10.2114 18.4425 10.1268 19.1655 10.0845C19.931 10 20.4201 9.97886 20.6328 10.0211C21.1856 10.1902 21.7385 10.6341 22.2914 11.3527C22.8443 12.0291 23.1632 12.5363 23.2483 12.8745V44.3884L26.119 45.1493V15.284C26.119 14.9036 26.2466 14.3118 26.5017 13.5086C26.7994 12.6631 27.1184 11.7543 27.4586 10.782H29.5V27.1413L35.7517 26.8243V15.6645L32.5621 14.3963V10.9089C33.4977 10.782 34.646 10.6552 36.0069 10.5284C37.3678 10.3593 38.6012 10.2325 39.7069 10.148C40.8552 10.0211 41.5782 9.97886 41.8759 10.0211C42.4287 10.1902 42.9816 10.6341 43.5345 11.3527C44.0874 12.0291 44.4063 12.5363 44.4914 12.8745V44.3884L48 45.5931V49.0806C47.277 49.1651 46.4052 49.2708 45.3845 49.3976C44.4063 49.5244 43.4069 49.6301 42.3862 49.7147C41.408 49.8415 40.5362 49.926 39.7707 49.9683C39.0477 50.0106 38.6011 50.0106 38.431 49.9683C37.8782 49.7992 37.304 49.3765 36.7086 48.7001C36.1557 47.9815 35.8368 47.4742 35.7517 47.1783V32.1506L29.5 31.8336V42.0423C29.5 42.2959 29.3511 42.7609 29.0534 43.4373C28.7983 44.0713 28.4368 44.8111 27.969 45.6565L26.1828 49.0806C25.2471 49.1651 24.1201 49.2919 22.8017 49.461C21.4833 49.6301 20.2713 49.7569 19.1655 49.8415C18.1023 49.9683 17.4431 50.0106 17.1879 49.9683C16.6351 49.7992 16.0609 49.3765 15.4655 48.7001C14.9126 47.9815 14.5937 47.4742 14.5086 47.1783V15.6645Z" fill="#E5D3A5"/>
<defs>
<filter id="filter0_b" x="-4" y="56" width="68" height="68" filterUnits="userSpaceOnUse" color-interpolation-filters="sRGB">
<feFlood flood-opacity="0" result="BackgroundImageFix"/>
<feGaussianBlur in="BackgroundImage" stdDeviation="2"/>
<feComposite in2="SourceAlpha" operator="in" result="effect1_backgroundBlur"/>
<feBlend mode="normal" in="SourceGraphic" in2="effect1_backgroundBlur" result="shape"/>
</filter>
<filter id="filter1_b" x="56" y="-4" width="68" height="68" filterUnits="userSpaceOnUse" color-interpolation-filters="sRGB">
<feFlood flood-opacity="0" result="BackgroundImageFix"/>
<feGaussianBlur in="BackgroundImage" stdDeviation="2"/>
<feComposite in2="SourceAlpha" operator="in" result="effect1_backgroundBlur"/>
<feBlend mode="normal" in="SourceGraphic" in2="effect1_backgroundBlur" result="shape"/>
</filter>
</defs>
</svg>
