<svg width="120" height="120" viewBox="0 0 120 120" fill="none" xmlns="http://www.w3.org/2000/svg">
<g filter="url(#filter0_b)">
<rect x="60" width="60" height="60" rx="16" fill="#E5D3A5"/>
</g>
<g filter="url(#filter1_b)">
<rect y="60" width="60" height="60" rx="16" fill="#E5D3A5"/>
</g>
<path d="M24.7394 48.542C24.6127 48.4997 24.2958 48.225 23.7887 47.7179C23.3239 47.1685 22.8592 46.6191 22.3944 46.0697C21.9718 45.4781 21.7394 45.0555 21.6972 44.8019L14.7254 16.6561L12 14.5642L13.9014 10C14.7465 10.0423 15.7394 10.1268 16.8803 10.2536C18.0211 10.3803 19.0563 10.5494 19.9859 10.7607C20.9577 10.9297 21.5704 11.0988 21.8239 11.2678C22.0775 11.5214 22.3521 11.8595 22.6479 12.2821C22.9437 12.6624 23.1761 13.0217 23.3451 13.3597L29.6197 42.2662L32.9155 43.3439L26.8944 15.5151C26.8099 15.0502 26.831 14.374 26.9577 13.4865C27.1268 12.5568 27.3169 11.6693 27.5282 10.8241H29.3662L34.2465 33.5816C34.2887 33.8352 34.331 34.5959 34.3732 35.8637C34.4577 37.1315 34.5211 38.505 34.5634 39.9842L39.5704 15.7052L36.5916 14.4374V11.0143C37.7324 10.8452 38.9155 10.6762 40.1408 10.5071C41.3662 10.3381 42.4437 10.2113 43.3732 10.1268C44.3028 10.0423 44.9366 10.0211 45.2747 10.0634C45.8662 10.2324 46.4155 10.655 46.9225 11.3312C47.4718 11.9651 47.831 12.4723 48 12.8526L40.2042 42.8368C39.9085 43.4284 39.3803 44.0835 38.6197 44.8019C37.8592 45.4781 36.993 46.1754 36.0211 46.8938C35.0916 47.6123 34.162 48.2462 33.2324 48.7956C32.3028 49.345 31.5 49.7464 30.8239 50C30.2746 49.9577 29.5986 49.8521 28.7958 49.683C27.993 49.514 27.2113 49.3238 26.4507 49.1125C25.7324 48.9012 25.162 48.711 24.7394 48.542Z" fill="#E5D3A5"/>
<path d="M74.5086 75.6645L71 74.3963V70.9089C71.723 70.8243 72.5736 70.7398 73.5517 70.6552C74.5724 70.5284 75.5718 70.4227 76.55 70.3382C77.5707 70.2114 78.4425 70.1268 79.1655 70.0845C79.931 70 80.4201 69.9789 80.6328 70.0211C81.1856 70.1902 81.7385 70.6341 82.2914 71.3527C82.8443 72.0291 83.1632 72.5363 83.2483 72.8745V104.388L86.119 105.149V75.284C86.119 74.9036 86.2466 74.3118 86.5017 73.5086C86.7994 72.6631 87.1184 71.7543 87.4586 70.782H89.5V87.1413L95.7517 86.8243V75.6645L92.5621 74.3963V70.9089C93.4977 70.782 94.646 70.6552 96.0069 70.5284C97.3678 70.3593 98.6012 70.2325 99.7069 70.148C100.855 70.0211 101.578 69.9789 101.876 70.0211C102.429 70.1902 102.982 70.6341 103.534 71.3527C104.087 72.0291 104.406 72.5363 104.491 72.8745V104.388L108 105.593V109.081C107.277 109.165 106.405 109.271 105.384 109.398C104.406 109.524 103.407 109.63 102.386 109.715C101.408 109.841 100.536 109.926 99.7707 109.968C99.0477 110.011 98.6011 110.011 98.431 109.968C97.8782 109.799 97.304 109.376 96.7086 108.7C96.1557 107.982 95.8368 107.474 95.7517 107.178V92.1506L89.5 91.8336V102.042C89.5 102.296 89.3511 102.761 89.0534 103.437C88.7983 104.071 88.4368 104.811 87.969 105.657L86.1828 109.081C85.2471 109.165 84.1201 109.292 82.8017 109.461C81.4833 109.63 80.2713 109.757 79.1655 109.841C78.1023 109.968 77.4431 110.011 77.1879 109.968C76.6351 109.799 76.0609 109.376 75.4655 108.7C74.9126 107.982 74.5937 107.474 74.5086 107.178V75.6645Z" fill="#E5D3A5"/>
<defs>
<filter id="filter0_b" x="56" y="-4" width="68" height="68" filterUnits="userSpaceOnUse" color-interpolation-filters="sRGB">
<feFlood flood-opacity="0" result="BackgroundImageFix"/>
<feGaussianBlur in="BackgroundImage" stdDeviation="2"/>
<feComposite in2="SourceAlpha" operator="in" result="effect1_backgroundBlur"/>
<feBlend mode="normal" in="SourceGraphic" in2="effect1_backgroundBlur" result="shape"/>
</filter>
<filter id="filter1_b" x="-4" y="56" width="68" height="68" filterUnits="userSpaceOnUse" color-interpolation-filters="sRGB">
<feFlood flood-opacity="0" result="BackgroundImageFix"/>
<feGaussianBlur in="BackgroundImage" stdDeviation="2"/>
<feComposite in2="SourceAlpha" operator="in" result="effect1_backgroundBlur"/>
<feBlend mode="normal" in="SourceGraphic" in2="effect1_backgroundBlur" result="shape"/>
</filter>
</defs>
</svg>
