<svg viewBox="0 0 40 40" xmlns="http://www.w3.org/2000/svg">
<path fill-rule="evenodd" clip-rule="evenodd" d="M2 20C2 19.4477 2.44772 19 3 19L37 19C37.5523 19 38 19.4477 38 20C38 20.5523 37.5523 21 37 21L3 21C2.44772 21 2 20.5523 2 20Z" />
<path fill-rule="evenodd" clip-rule="evenodd" d="M25.2929 31.7071C24.9024 31.3166 24.9024 30.6835 25.2929 30.2929L35.5858 19.9991L25.2929 9.70714C24.9024 9.31663 24.9024 8.68346 25.2929 8.29292C25.6834 7.90238 26.3165 7.90236 26.7071 8.29286L37.7071 19.292C37.8946 19.4795 38 19.7338 38 19.999C38 20.2643 37.8947 20.5186 37.7071 20.7062L26.7071 31.7071C26.3166 32.0976 25.6835 32.0976 25.2929 31.7071Z" />
</svg>
