<svg width="40" height="40" viewBox="0 0 40 40" xmlns="http://www.w3.org/2000/svg">
<path fill-rule="evenodd" clip-rule="evenodd" d="M38 20C38 20.5523 37.5523 21 37 21L3 21C2.44772 21 2 20.5523 2 20C2 19.4477 2.44772 19 3 19L37 19C37.5523 19 38 19.4477 38 20Z" />
<path fill-rule="evenodd" clip-rule="evenodd" d="M14.7071 8.29286C15.0976 8.68337 15.0976 9.31654 14.7071 9.70708L4.41421 20.0009L14.7071 30.2929C15.0976 30.6834 15.0976 31.3165 14.7071 31.7071C14.3166 32.0976 13.6835 32.0976 13.2929 31.7071L2.29292 20.7081C2.10538 20.5205 2.00001 20.2662 2 20.001C1.99999 19.7357 2.10534 19.4814 2.29287 19.2938L13.2929 8.29292C13.6834 7.90238 14.3165 7.90236 14.7071 8.29286Z" />
</svg>
