<svg viewBox="0 0 40 40" xmlns="http://www.w3.org/2000/svg">
<path fill-rule="evenodd" clip-rule="evenodd" d="M20 38C19.4477 38 19 37.5523 19 37L19 3C19 2.44772 19.4477 2 20 2C20.5523 2 21 2.44772 21 3L21 37C21 37.5523 20.5523 38 20 38Z" />
<path fill-rule="evenodd" clip-rule="evenodd" d="M31.7071 14.7071C31.3166 15.0976 30.6835 15.0976 30.2929 14.7071L19.9991 4.41421L9.70714 14.7071C9.31663 15.0976 8.68346 15.0976 8.29292 14.7071C7.90238 14.3166 7.90236 13.6835 8.29286 13.2929L19.292 2.29292C19.4795 2.10538 19.7338 2.00001 19.999 2C20.2643 1.99999 20.5186 2.10534 20.7062 2.29286L31.7071 13.2929C32.0976 13.6834 32.0976 14.3165 31.7071 14.7071Z" />
</svg>
