<svg width="40" height="40" viewBox="0 0 40 40" xmlns="http://www.w3.org/2000/svg">
<path fill-rule="evenodd" clip-rule="evenodd" d="M20 2C20.5523 2 21 2.44772 21 3V37C21 37.5523 20.5523 38 20 38C19.4477 38 19 37.5523 19 37V3C19 2.44772 19.4477 2 20 2Z" />
<path fill-rule="evenodd" clip-rule="evenodd" d="M8.29286 25.2929C8.68337 24.9024 9.31654 24.9024 9.70708 25.2929L20.0009 35.5858L30.2929 25.2929C30.6834 24.9024 31.3165 24.9024 31.7071 25.2929C32.0976 25.6834 32.0976 26.3165 31.7071 26.7071L20.708 37.7071C20.5205 37.8946 20.2662 38 20.001 38C19.7357 38 19.4814 37.8947 19.2938 37.7071L8.29292 26.7071C7.90238 26.3166 7.90236 25.6835 8.29286 25.2929Z" />
</svg>
