<svg width="40" height="40" viewBox="0 0 40 40" xmlns="http://www.w3.org/2000/svg">
<path fill-rule="evenodd" clip-rule="evenodd" d="M16.3953 14.4533L16.3969 14.4526C16.5487 14.3795 16.7539 14.2943 16.9248 14.2292C17.0136 14.1953 17.1202 14.1565 17.2265 14.1229C17.2787 14.1064 17.3508 14.0847 17.432 14.065L17.4347 14.0644C17.4839 14.0524 17.6598 14.0096 17.8802 14.0016C19.0033 13.9607 19.8763 14.6664 20.2519 15.4983L20.2534 15.5016C20.8472 16.8229 21.0172 18.5374 20.9987 20.0131C20.9797 21.5161 20.7592 23.1201 20.328 24.3148L20.3265 24.3189L20.3265 24.3189C20.1283 24.8642 19.7543 25.3277 19.2613 25.6311C18.8842 25.8636 18.4118 26.0156 17.8911 25.9987C16.3439 25.9549 14.9283 25.0169 13.9859 24.2399C12.9604 23.3943 12.0424 22.357 11.4564 21.4913C11.1341 21.0188 11 20.488 11 19.9988C11 19.5386 11.1195 19.0322 11.4138 18.5725M13.11 20.3663C14.0657 21.7799 16.2687 23.9563 17.953 23.9997C18.0432 24.0032 18.1335 23.9771 18.2123 23.9283C18.315 23.8653 18.4001 23.7642 18.4468 23.6357C19.108 21.8039 19.2635 18.178 18.4292 16.3214C18.3379 16.1192 18.149 15.9931 17.953 16.0003C17.8606 16.0027 17.4321 16.1739 17.2641 16.2548C15.8301 16.9463 14.0457 18.1697 13.0986 19.6503C13.0322 19.7538 13 19.8775 13 19.9988C13 20.1296 13.0363 20.2592 13.11 20.3663ZM16.3953 14.4533C14.8098 15.218 12.6477 16.6443 11.4144 18.5717L16.3953 14.4533Z" />
<path fill-rule="evenodd" clip-rule="evenodd" d="M24.3953 14.4533L24.3969 14.4526C24.5487 14.3795 24.7539 14.2943 24.9248 14.2292C25.0136 14.1953 25.1202 14.1565 25.2265 14.1229C25.2787 14.1064 25.3508 14.0847 25.432 14.065L25.4347 14.0644C25.4839 14.0524 25.6598 14.0096 25.8802 14.0016C27.0033 13.9607 27.8763 14.6664 28.2519 15.4983L28.2534 15.5016C28.8472 16.8229 29.0172 18.5374 28.9987 20.0131C28.9797 21.5161 28.7592 23.1201 28.328 24.3148L28.3265 24.3189L28.3265 24.3189C28.1283 24.8642 27.7543 25.3277 27.2613 25.6311C26.8842 25.8636 26.4118 26.0156 25.8911 25.9987C24.3439 25.9549 22.9283 25.0169 21.9859 24.2399C20.9604 23.3943 20.0424 22.357 19.4564 21.4913C19.1341 21.0188 19 20.488 19 19.9988C19 19.5386 19.1195 19.0322 19.4138 18.5725M21.11 20.3663C22.0657 21.7799 24.2687 23.9563 25.953 23.9997C26.0432 24.0032 26.1335 23.9771 26.2123 23.9283C26.315 23.8653 26.4001 23.7642 26.4468 23.6357C27.108 21.8039 27.2635 18.178 26.4292 16.3214C26.3379 16.1192 26.149 15.9931 25.953 16.0003C25.8606 16.0027 25.4321 16.1739 25.2641 16.2548C23.8301 16.9463 22.0457 18.1697 21.0986 19.6503C21.0322 19.7538 21 19.8775 21 19.9988C21 20.1296 21.0363 20.2592 21.11 20.3663ZM24.3953 14.4533C22.8098 15.218 20.6477 16.6443 19.4144 18.5717L24.3953 14.4533Z" />
<path fill-rule="evenodd" clip-rule="evenodd" d="M4.70294 4.97912C6.47565 3.07728 9.0092 2 12.033 2H27.9652C30.9966 2 33.5311 3.07685 35.3027 4.9795C37.0668 6.8741 38 9.50618 38 12.4943V27.5057C38 30.4938 37.0668 33.1259 35.3024 35.0206C33.5305 36.9232 30.9956 38 27.9634 38H12.033C9.00158 38 6.46749 36.9231 4.69629 35.0204C2.93262 33.1257 2 30.4937 2 27.5057V12.4943C2 9.50507 2.9375 6.87317 4.70294 4.97912ZM6.16595 6.3428C4.80293 7.8051 4 9.92034 4 12.4943V27.5057C4 30.0809 4.79954 32.196 6.1602 33.6577C7.51332 35.1113 9.49572 36 12.033 36H27.9634C30.5016 36 32.485 35.1112 33.8388 33.6575C35.2001 32.1958 36 30.0808 36 27.5057V12.4943C36 9.91923 35.2001 7.80417 33.839 6.34242C32.4854 4.88872 30.5025 4 27.9652 4H12.033C9.50464 4 7.5217 4.88829 6.16595 6.3428Z" />
</svg>
