<svg viewBox="0 0 40 40" xmlns="http://www.w3.org/2000/svg">
<path fill-rule="evenodd" clip-rule="evenodd" d="M34.7071 5.29304C35.0976 5.68357 35.0976 6.31673 34.7071 6.70726L6.70711 34.7073C6.31658 35.0978 5.68342 35.0978 5.29289 34.7073C4.90237 34.3167 4.90237 33.6836 5.29289 33.293L33.2929 5.29304C33.6834 4.90252 34.3166 4.90252 34.7071 5.29304Z" />
<path fill-rule="evenodd" clip-rule="evenodd" d="M34.7071 34.7071C34.3166 35.0976 33.6834 35.0976 33.2929 34.7071L5.29286 6.70711C4.90234 6.31658 4.90234 5.68342 5.29286 5.29289C5.68339 4.90237 6.31655 4.90237 6.70708 5.29289L34.7071 33.2929C35.0976 33.6834 35.0976 34.3166 34.7071 34.7071Z" />
</svg>
