<svg viewBox="0 0 40 40" xmlns="http://www.w3.org/2000/svg">
<path fill-rule="evenodd" clip-rule="evenodd" d="M30.1792 9.50481C30.5698 9.89533 30.5698 10.5285 30.1792 10.919L24.6659 16.4323C24.2754 16.8229 23.6422 16.8229 23.2517 16.4323C22.8612 16.0418 22.8612 15.4086 23.2517 15.0181L28.765 9.50481C29.1556 9.11428 29.7887 9.11428 30.1792 9.50481Z" />
<path fill-rule="evenodd" clip-rule="evenodd" d="M10.2657 30.4952C9.87518 30.1047 9.87518 29.4715 10.2657 29.081L15.779 23.5677C16.1695 23.1771 16.8027 23.1771 17.1932 23.5677C17.5838 23.9582 17.5838 24.5914 17.1932 24.9819L11.6799 30.4952C11.2894 30.8857 10.6562 30.8857 10.2657 30.4952Z" />
<path fill-rule="evenodd" clip-rule="evenodd" d="M28.6344 17.563C28.6344 18.1153 28.1867 18.563 27.6344 18.563L22.4364 18.563C21.8841 18.563 21.4364 18.1153 21.4364 17.563L21.4364 12.365C21.4364 11.8127 21.8841 11.365 22.4364 11.365C22.9887 11.365 23.4364 11.8127 23.4364 12.365L23.4364 16.563L27.6344 16.563C28.1867 16.563 28.6344 17.0107 28.6344 17.563Z" />
<path fill-rule="evenodd" clip-rule="evenodd" d="M11.8107 22.437C11.8107 21.8847 12.2584 21.437 12.8107 21.437L18.0087 21.437C18.561 21.437 19.0087 21.8847 19.0087 22.437L19.0087 27.635C19.0087 28.1873 18.561 28.635 18.0087 28.635C17.4564 28.635 17.0087 28.1873 17.0087 27.635L17.0087 23.437L12.8107 23.437C12.2584 23.437 11.8107 22.9893 11.8107 22.437Z" />
<path fill-rule="evenodd" clip-rule="evenodd" d="M4.70294 4.97912C6.47565 3.07728 9.0092 2 12.033 2H27.9652C30.9966 2 33.5311 3.07685 35.3027 4.9795C37.0668 6.8741 38 9.50618 38 12.4943V27.5057C38 30.4938 37.0668 33.1259 35.3024 35.0206C33.5305 36.9232 30.9956 38 27.9634 38H12.033C9.00158 38 6.46749 36.9231 4.69629 35.0204C2.93262 33.1257 2 30.4937 2 27.5057V12.4943C2 9.50507 2.9375 6.87317 4.70294 4.97912ZM6.16595 6.3428C4.80293 7.8051 4 9.92034 4 12.4943V27.5057C4 30.0809 4.79954 32.196 6.1602 33.6577C7.51332 35.1113 9.49572 36 12.033 36H27.9634C30.5016 36 32.485 35.1112 33.8388 33.6575C35.2001 32.1958 36 30.0808 36 27.5057V12.4943C36 9.91923 35.2001 7.80417 33.839 6.34242C32.4854 4.88872 30.5025 4 27.9652 4H12.033C9.50464 4 7.5217 4.88829 6.16595 6.3428Z" />
</svg>
