<svg viewBox="0 0 40 40" xmlns="http://www.w3.org/2000/svg">
<path fill-rule="evenodd" clip-rule="evenodd" d="M21.1302 18.8692C20.7397 18.4787 20.7397 17.8455 21.1302 17.455L26.6435 11.9417C27.034 11.5512 27.6672 11.5512 28.0577 11.9417C28.4483 12.3322 28.4483 12.9654 28.0577 13.3559L22.5444 18.8692C22.1539 19.2597 21.5207 19.2597 21.1302 18.8692Z" />
<path fill-rule="evenodd" clip-rule="evenodd" d="M19.3149 21.1308C19.7054 21.5213 19.7054 22.1545 19.3149 22.545L13.8016 28.0583C13.411 28.4488 12.7779 28.4488 12.3873 28.0583C11.9968 27.6678 11.9968 27.0346 12.3873 26.6441L17.9007 21.1308C18.2912 20.7403 18.9243 20.7403 19.3149 21.1308Z" />
<path fill-rule="evenodd" clip-rule="evenodd" d="M22.6751 10.811C22.6751 10.2588 23.1228 9.81104 23.6751 9.81104L28.8731 9.81104C29.4254 9.81104 29.8731 10.2588 29.8731 10.811L29.8731 16.009C29.8731 16.5613 29.4254 17.009 28.8731 17.009C28.3208 17.009 27.8731 16.5613 27.8731 16.009L27.8731 11.811L23.6751 11.811C23.1228 11.811 22.6751 11.3633 22.6751 10.811Z" />
<path fill-rule="evenodd" clip-rule="evenodd" d="M17.7699 29.189C17.7699 29.7412 17.3222 30.189 16.7699 30.189L11.5719 30.189C11.0196 30.189 10.5719 29.7412 10.5719 29.189L10.5719 23.991C10.5719 23.4387 11.0196 22.991 11.5719 22.991C12.1242 22.991 12.5719 23.4387 12.5719 23.991L12.5719 28.189L16.7699 28.189C17.3222 28.189 17.7699 28.6367 17.7699 29.189Z" />
<path fill-rule="evenodd" clip-rule="evenodd" d="M4.70294 4.97912C6.47565 3.07728 9.0092 2 12.033 2H27.9652C30.9966 2 33.5311 3.07685 35.3027 4.9795C37.0668 6.8741 38 9.50618 38 12.4943V27.5057C38 30.4938 37.0668 33.1259 35.3024 35.0206C33.5305 36.9232 30.9956 38 27.9634 38H12.033C9.00158 38 6.46749 36.9231 4.69629 35.0204C2.93262 33.1257 2 30.4937 2 27.5057V12.4943C2 9.50507 2.9375 6.87317 4.70294 4.97912ZM6.16595 6.3428C4.80293 7.8051 4 9.92034 4 12.4943V27.5057C4 30.0809 4.79954 32.196 6.1602 33.6577C7.51332 35.1113 9.49572 36 12.033 36H27.9634C30.5016 36 32.485 35.1112 33.8388 33.6575C35.2001 32.1958 36 30.0808 36 27.5057V12.4943C36 9.91923 35.2001 7.80417 33.839 6.34242C32.4854 4.88872 30.5025 4 27.9652 4H12.033C9.50464 4 7.5217 4.88829 6.16595 6.3428Z" />
</svg>
