<svg viewBox="0 0 40 40" xmlns="http://www.w3.org/2000/svg">
<path fill-rule="evenodd" clip-rule="evenodd" d="M15 12C15.5523 12 16 12.4477 16 13V27C16 27.5523 15.5523 28 15 28C14.4477 28 14 27.5523 14 27V13C14 12.4477 14.4477 12 15 12Z" />
<path fill-rule="evenodd" clip-rule="evenodd" d="M25 12C25.5523 12 26 12.4477 26 13V27C26 27.5523 25.5523 28 25 28C24.4477 28 24 27.5523 24 27V13C24 12.4477 24.4477 12 25 12Z" />
<path fill-rule="evenodd" clip-rule="evenodd" d="M4.70294 4.97912C6.47565 3.07728 9.0092 2 12.033 2H27.9652C30.9966 2 33.5311 3.07685 35.3027 4.9795C37.0668 6.8741 38 9.50618 38 12.4943V27.5057C38 30.4938 37.0668 33.1259 35.3024 35.0206C33.5305 36.9232 30.9956 38 27.9634 38H12.033C9.00158 38 6.46749 36.9231 4.69629 35.0204C2.93262 33.1257 2 30.4937 2 27.5057V12.4943C2 9.50507 2.9375 6.87317 4.70294 4.97912ZM6.16595 6.3428C4.80293 7.8051 4 9.92034 4 12.4943V27.5057C4 30.0809 4.79954 32.196 6.1602 33.6577C7.51332 35.1113 9.49572 36 12.033 36H27.9634C30.5016 36 32.485 35.1112 33.8388 33.6575C35.2001 32.1958 36 30.0808 36 27.5057V12.4943C36 9.91923 35.2001 7.80417 33.839 6.34242C32.4854 4.88872 30.5025 4 27.9652 4H12.033C9.50464 4 7.5217 4.88829 6.16595 6.3428Z" />
</svg>
