<svg width="40" height="40" viewBox="0 0 40 40" xmlns="http://www.w3.org/2000/svg">
<path fill-rule="evenodd" clip-rule="evenodd" d="M12 18.2161V18.2287C12.0786 20.4805 12.837 22.6489 14.1666 24.4334L14.1728 24.4418L14.1728 24.4418C15.7376 26.5886 17.657 28.4345 19.8423 29.8957C19.8804 29.9211 19.9166 29.9491 19.9507 29.9795C19.9688 29.9956 19.9855 30 20 30C20.0144 30 20.0311 29.9956 20.0492 29.9795C20.0843 29.9483 20.1216 29.9196 20.1607 29.8936C21.6267 28.9214 22.9791 27.778 24.1906 26.4859C26.317 24.1798 27.9421 21.3416 27.9999 18.3723V18.2772L28 18.2739C28.0151 13.6943 24.4202 10.0154 20.0271 10C15.6346 9.98472 12.016 13.6373 12 18.2161ZM10 18.2111C10.0186 12.578 14.4859 7.9807 20.034 8.00006C25.5814 8.01942 30.0176 12.6466 29.9999 18.2787V18.3819L29.9998 18.4003C29.9323 22.0651 27.9518 25.3582 25.658 27.8449L25.6525 27.8508L25.6525 27.8508C24.3487 29.2417 22.8939 30.4752 21.3162 31.5271C20.5491 32.1581 19.4486 32.1576 18.6821 31.5257C16.3212 29.9388 14.2495 27.9413 12.5596 25.6241C10.9827 23.5057 10.0895 20.9383 10.0006 18.2792C10.0002 18.2681 10 18.2569 10 18.2458V18.2144L10 18.2111Z" fill="#E5D3A5"/>
<path fill-rule="evenodd" clip-rule="evenodd" d="M19.9999 15.8237C18.7831 15.8237 17.7856 16.8184 17.7856 18.059C17.7856 19.2997 18.7831 20.2943 19.9999 20.2943C21.2167 20.2943 22.2142 19.2997 22.2142 18.059C22.2142 16.8184 21.2167 15.8237 19.9999 15.8237ZM15.7856 18.059C15.7856 15.7261 17.6663 13.8237 19.9999 13.8237C22.3335 13.8237 24.2142 15.7261 24.2142 18.059C24.2142 20.392 22.3335 22.2943 19.9999 22.2943C17.6663 22.2943 15.7856 20.392 15.7856 18.059Z" fill="#E5D3A5"/>
<path fill-rule="evenodd" clip-rule="evenodd" d="M4.70294 4.97912C6.47565 3.07728 9.0092 2 12.033 2H27.9652C30.9966 2 33.5311 3.07685 35.3027 4.9795C37.0668 6.8741 38 9.50618 38 12.4943V27.5057C38 30.4938 37.0668 33.1259 35.3024 35.0206C33.5305 36.9232 30.9956 38 27.9634 38H12.033C9.00158 38 6.46749 36.9231 4.69629 35.0204C2.93262 33.1257 2 30.4937 2 27.5057V12.4943C2 9.50507 2.9375 6.87317 4.70294 4.97912ZM6.16595 6.3428C4.80293 7.8051 4 9.92034 4 12.4943V27.5057C4 30.0809 4.79954 32.196 6.1602 33.6577C7.51332 35.1113 9.49572 36 12.033 36H27.9634C30.5016 36 32.485 35.1112 33.8388 33.6575C35.2001 32.1958 36 30.0808 36 27.5057V12.4943C36 9.91923 35.2001 7.80417 33.839 6.34242C32.4854 4.88872 30.5025 4 27.9652 4H12.033C9.50464 4 7.5217 4.88829 6.16595 6.3428Z" fill="#E5D3A5"/>
</svg>
