<svg viewBox="0 0 40 40" xmlns="http://www.w3.org/2000/svg">
<path fill-rule="evenodd" clip-rule="evenodd" d="M7 17.2421V17.2719C7.12427 20.8635 8.34092 24.3247 10.4784 27.175L10.4847 27.1834L10.4846 27.1834C12.9565 30.5525 15.9892 33.4504 19.4435 35.7451C19.4815 35.7704 19.5177 35.7982 19.5519 35.8284C19.8111 36.0572 20.1888 36.0572 20.448 35.8284C20.4831 35.7974 20.5204 35.7688 20.5596 35.743C22.8768 34.2163 25.0137 32.421 26.9278 30.3928C30.283 26.7781 32.9081 22.2672 32.9999 17.4899V17.3375L32.9999 17.3341C33.0244 9.97552 27.2046 4.02491 20.0441 4.00008C12.8841 3.97525 7.02536 9.8843 7 17.2421ZM5.00001 17.2371C5.02805 8.81256 11.7475 1.9713 20.051 2.00009C28.3538 2.02888 35.027 8.91546 34.9999 17.3391V17.4993L34.9997 17.5178C34.8982 22.9953 31.9132 27.9626 28.3908 31.7565L28.3853 31.7624L28.3853 31.7624C26.3792 33.8885 24.1404 35.7729 21.7125 37.3784C20.7176 38.2076 19.2802 38.2072 18.2858 37.3771C14.6571 34.9578 11.4723 31.9095 8.87516 28.3707C6.4886 25.1864 5.13528 21.3246 5.00057 17.3226C5.00019 17.3114 5 17.3001 5 17.2889V17.2404L5.00001 17.2371Z" />
<path fill-rule="evenodd" clip-rule="evenodd" d="M20 13C17.7909 13 16 14.7909 16 17C16 19.2091 17.7909 21 20 21C22.2091 21 24 19.2091 24 17C24 14.7909 22.2091 13 20 13ZM14 17C14 13.6863 16.6863 11 20 11C23.3137 11 26 13.6863 26 17C26 20.3137 23.3137 23 20 23C16.6863 23 14 20.3137 14 17Z" />
</svg>
