<svg width="40" height="40" viewBox="0 0 40 40" xmlns="http://www.w3.org/2000/svg">
<path fill-rule="evenodd" clip-rule="evenodd" d="M19.352 27.4644L19.3506 27.465C19.1417 27.5517 18.8309 27.6638 18.5599 27.7529C18.4212 27.7985 18.2686 27.8461 18.1263 27.8849C18.1235 27.8857 18.1199 27.8867 18.1156 27.8879C18.041 27.9086 17.752 27.9889 17.4486 27.9986C16.3507 28.033 15.3046 27.4364 14.7858 26.4456L14.7839 26.4421C13.8339 24.6187 13.5352 22.1727 13.5671 19.989C13.5994 17.7775 13.9774 15.4578 14.682 13.7742L14.6839 13.7697L14.6839 13.7697C14.9585 13.118 15.446 12.6334 15.9963 12.3414C16.419 12.1165 16.9159 11.986 17.4397 12.0012C19.5189 12.0507 21.6156 13.1757 23.2315 14.3249C24.9097 15.5183 26.4231 16.9937 27.3788 18.2116C27.7989 18.7421 28 19.3783 28 20.0018C28 20.5871 27.821 21.1964 27.4343 21.7169C25.4669 24.3687 21.9669 26.3768 19.352 27.4644ZM25.8286 20.5245C25.9441 20.3693 26 20.1838 26 20.0018C26 19.8056 25.9369 19.6111 25.8088 19.4506C24.1466 17.3301 20.3151 14.0656 17.3858 14.0005C17.2289 13.9951 17.0719 14.0344 16.9347 14.1075C16.7561 14.2021 16.6081 14.3537 16.5269 14.5464C15.377 17.2941 15.1065 22.733 16.5576 25.5179C16.7164 25.8212 17.0448 26.0103 17.3858 25.9996C17.5464 25.996 18.2916 25.7391 18.584 25.6178C21.0779 24.5805 24.1813 22.7455 25.8286 20.5245Z" />
<path fill-rule="evenodd" clip-rule="evenodd" d="M4.70294 4.97912C6.47565 3.07728 9.0092 2 12.033 2H27.9652C30.9966 2 33.5311 3.07685 35.3027 4.9795C37.0668 6.8741 38 9.50618 38 12.4943V27.5057C38 30.4938 37.0668 33.1259 35.3024 35.0206C33.5305 36.9232 30.9956 38 27.9634 38H12.033C9.00158 38 6.46749 36.9231 4.69629 35.0204C2.93262 33.1257 2 30.4937 2 27.5057V12.4943C2 9.50507 2.9375 6.87317 4.70294 4.97912ZM6.16595 6.3428C4.80293 7.8051 4 9.92034 4 12.4943V27.5057C4 30.0809 4.79954 32.196 6.1602 33.6577C7.51332 35.1113 9.49572 36 12.033 36H27.9634C30.5016 36 32.485 35.1112 33.8388 33.6575C35.2001 32.1958 36 30.0808 36 27.5057V12.4943C36 9.91923 35.2001 7.80417 33.839 6.34242C32.4854 4.88872 30.5025 4 27.9652 4H12.033C9.50464 4 7.5217 4.88829 6.16595 6.3428Z" />
</svg>
