<svg width="40" height="40" viewBox="0 0 40 40" xmlns="http://www.w3.org/2000/svg">
<path fill-rule="evenodd" clip-rule="evenodd" d="M18.0164 32.1285L18.0149 32.1292C17.6979 32.269 17.1972 32.4617 16.7488 32.6183C16.5213 32.6978 16.282 32.7769 16.0673 32.8392C16.0629 32.8404 16.0582 32.8418 16.0532 32.8433C15.9219 32.8815 15.5622 32.9863 15.2078 32.9981C13.7947 33.0452 12.5218 32.225 11.9184 31L11.9167 30.9965C10.4614 28.0281 9.95038 23.8882 10.0037 20.0058C10.0575 16.0957 10.6899 12.0846 11.7987 9.26892L11.8004 9.26452L11.8004 9.26452C12.116 8.46854 12.6902 7.84426 13.3796 7.45563C13.9078 7.15682 14.5359 6.98057 15.199 7.00171C18.3763 7.08068 21.7136 8.93418 24.4312 10.9882C27.2194 13.0957 29.7238 15.6974 31.2755 17.8C31.7712 18.4641 32 19.2461 32 20.0033C32 20.7125 31.7965 21.4599 31.3436 22.1074C28.1951 26.6182 22.4519 30.1677 18.0164 32.1285ZM29.7043 20.9616C29.9035 20.6771 30 20.3369 30 20.0033C30 19.6436 29.8911 19.2871 29.6701 18.9927C26.803 15.1052 20.1939 9.12021 15.1411 9.0009C14.8703 8.99108 14.5996 9.06304 14.363 9.19713C14.0549 9.37048 13.7997 9.64848 13.6596 10.0017C11.676 15.0392 11.2095 25.0104 13.7125 30.1161C13.9864 30.6722 14.5529 31.0188 15.1411 30.9992C15.4181 30.9927 16.7036 30.5217 17.2078 30.2993C21.5097 28.3976 26.8628 25.0334 29.7043 20.9616Z" />
</svg>
