<svg viewBox="0 0 40 40" xmlns="http://www.w3.org/2000/svg">
<path fill-rule="evenodd" clip-rule="evenodd" d="M21.1252 2C22.32 1.99962 23.4676 2.4745 24.3056 3.3221C25.139 4.16496 25.5954 5.30535 25.5671 6.48714C25.5741 6.87213 25.6829 7.24983 25.8841 7.5832L25.8869 7.58775C26.2098 8.12919 26.7417 8.52692 27.3693 8.68712C27.9972 8.84741 28.6635 8.7551 29.2201 8.43276L29.2304 8.42684C31.3454 7.23533 34.0501 7.94508 35.2773 10.0392L36.397 11.9496C36.4216 11.9915 36.443 12.035 36.4611 12.0797C37.5903 14.1587 36.8462 16.749 34.7813 17.9364L34.7734 17.9409C34.4059 18.1478 34.1034 18.4461 33.8953 18.8034L33.8916 18.8098C33.5699 19.3527 33.4825 19.9969 33.6464 20.6012C33.8104 21.206 34.2144 21.7267 34.7751 22.0439C35.7948 22.6207 36.5437 23.5765 36.8494 24.7038C37.1553 25.8316 36.9908 27.0323 36.3946 28.0384L36.388 28.0495L35.2056 29.9869C33.9698 32.0678 31.2713 32.7655 29.164 31.5729C28.8075 31.3728 28.4054 31.2611 27.9931 31.2485C27.3443 31.2483 26.7251 31.5017 26.2712 31.948C25.8154 32.3961 25.5639 33.0012 25.5669 33.6275V33.6373C25.5551 36.0659 23.5541 38 21.1252 38H18.8692C16.4342 38 14.4308 36.0565 14.4275 33.6223C14.4226 33.233 14.3137 32.8508 14.1103 32.5139L14.1021 32.5001C13.786 31.9568 13.2591 31.5553 12.6343 31.3909C12.0093 31.2265 11.3438 31.3148 10.7872 31.6341L10.7723 31.6425C9.74335 32.2096 8.52907 32.3494 7.39668 32.033C6.26729 31.7174 5.3067 30.9721 4.73037 29.9553L3.59877 28.0366L3.59769 28.0347C2.36661 25.9372 3.10352 23.2635 5.21725 22.0612C5.97416 21.6316 6.43253 20.8433 6.43253 20C6.43253 19.1567 5.97492 18.3688 5.21801 17.9392L5.21519 17.9376C3.10099 16.7284 2.36575 14.0512 3.59737 11.9496L3.60975 11.9291L4.80596 9.99578C6.03616 7.91022 8.73503 7.20503 10.8463 8.39446L10.8595 8.40201C11.2061 8.60429 11.6021 8.71404 12.0074 8.71904C13.3529 8.71652 14.4207 7.65982 14.4439 6.3775C14.4412 5.214 14.9088 4.10034 15.7385 3.28067C16.5703 2.45895 17.6973 1.99999 18.8692 2H21.1252C21.1251 2 21.1254 2 21.1252 2ZM16.4438 6.39841C16.4086 8.81039 14.4147 10.7193 12.0021 10.719L11.992 10.719C11.2421 10.7114 10.5065 10.5099 9.85894 10.1338C8.68191 9.47468 7.19145 9.8808 6.52502 11.018L6.51264 11.0385L5.31737 12.9703C4.66452 14.096 5.04879 15.5374 6.20671 16.2007C7.57874 16.9801 8.43253 18.426 8.43253 20C8.43253 21.5742 7.57847 23.0203 6.20606 23.7997C5.04766 24.4586 4.6643 25.9002 5.32227 27.0219C5.32237 27.0221 5.32217 27.0217 5.32227 27.0219L6.45775 28.9472L6.46752 28.9642C6.77951 29.5177 7.30605 29.9311 7.93492 30.1068C8.5618 30.2819 9.23335 30.2048 9.80057 29.8944C10.8127 29.3167 12.015 29.1599 13.1432 29.4567C14.2723 29.7538 15.2395 30.4824 15.8267 31.4873C16.2119 32.1281 16.4195 32.8587 16.4274 33.6056L16.4275 33.6162C16.4275 34.9168 17.5046 36 18.8692 36H21.1252C22.4837 36 23.5583 34.9261 23.5669 33.6317C23.5627 32.4625 24.0334 31.3434 24.869 30.5218C25.7054 29.6995 26.8378 29.243 28.0134 29.2486L28.035 29.2489C28.7754 29.2684 29.5004 29.4677 30.1453 29.8301L30.1483 29.8318C31.3231 30.4973 32.8164 30.0972 33.488 28.9622L33.495 28.9505L34.677 27.0137C34.9962 26.4719 35.0826 25.8298 34.9192 25.2274C34.7551 24.6226 34.3512 24.1018 33.7904 23.7847C32.7707 23.2079 32.0219 22.2521 31.7161 21.1247C31.4105 19.9981 31.5744 18.7987 32.1691 17.7932C32.557 17.1289 33.1161 16.5799 33.7876 16.2007C34.9402 15.5356 35.3218 14.0973 34.6694 12.9734L34.6716 12.9609L33.5518 11.0504C32.8851 9.91282 31.3937 9.50676 30.2165 10.1669C29.2068 10.7496 28.0053 10.9136 26.8746 10.625C25.7421 10.3359 24.768 9.61481 24.1705 8.6145C23.7836 7.97255 23.5749 7.24021 23.567 6.49152L23.5674 6.45175C23.586 5.81344 23.3414 5.19147 22.8834 4.72828C22.4248 4.26447 21.7911 3.99973 21.1256 4H18.8692C18.2185 3.99999 17.598 4.25508 17.1441 4.70347C16.6908 5.15128 16.4409 5.75457 16.4439 6.37892L16.4438 6.39841Z" />
<path fill-rule="evenodd" clip-rule="evenodd" d="M20 16C17.7909 16 16 17.7909 16 20C16 22.2091 17.7909 24 20 24C22.2091 24 24 22.2091 24 20C24 17.7909 22.2091 16 20 16ZM14 20C14 16.6863 16.6863 14 20 14C23.3137 14 26 16.6863 26 20C26 23.3137 23.3137 26 20 26C16.6863 26 14 23.3137 14 20Z" />
</svg>
