<svg width="40" height="40" viewBox="0 0 40 40" xmlns="http://www.w3.org/2000/svg">
<path fill-rule="evenodd" clip-rule="evenodd" d="M19.4092 8.6159C19.0752 7.44496 18.3087 6.98247 17.7261 7.00065C17.708 7.00121 17.6899 7.00129 17.6719 7.00087C17.6719 7.00087 17.6678 7.00078 17.6587 7.00144C17.6497 7.00209 17.637 7.00341 17.6206 7.00589C17.5873 7.01096 17.5437 7.02006 17.49 7.03501C17.3815 7.06525 17.2515 7.11388 17.1102 7.18032C16.8208 7.31634 16.5473 7.49684 16.368 7.6593L16.3537 7.67198L10.3174 12.9341C10.1353 13.0928 9.90191 13.1803 9.66032 13.1803H6.22653C5.24709 13.1803 4.40968 13.9718 4.22236 15.3864C3.94024 17.8156 3.9122 22.1459 4.22138 24.4962L4.22356 24.514C4.31893 25.3549 4.59167 25.9328 4.92263 26.2871C5.23812 26.6248 5.66162 26.8217 6.22653 26.8217H9.66032C9.90129 26.8217 10.1342 26.9087 10.3161 27.0667L16.4797 32.4205L16.4925 32.4318C16.6741 32.5951 16.9131 32.7492 17.1564 32.8579C17.4123 32.9722 17.5936 33.0013 17.6686 32.9993C17.6877 32.9988 17.7069 32.9989 17.7261 32.9995C18.3097 33.0177 19.0766 32.5556 19.4099 31.3816C19.5795 30.7001 19.6386 30.0653 19.7053 29.3493C19.7319 29.0642 19.7596 28.7663 19.796 28.4474L19.7964 28.4446C19.9283 27.3172 20 23.7042 20 20.001C20 16.2977 19.9283 12.6847 19.7964 11.5574L19.796 11.5546C19.7625 11.261 19.7343 10.9767 19.7069 10.7012C19.6313 9.94211 19.5625 9.2499 19.4092 8.6159ZM17.6884 5.00094C19.4428 4.95921 20.8402 6.31129 21.3394 8.09169C21.3424 8.10244 21.3452 8.11323 21.3479 8.12408C21.5408 8.91275 21.6303 9.81753 21.7098 10.6204C21.7342 10.8675 21.7577 11.1049 21.783 11.3264C21.9315 12.5977 22 16.3444 22 20.001C22 23.6576 21.9315 27.4044 21.783 28.6756L21.7828 28.6771L21.7831 28.6742L21.783 28.6756C21.7567 28.9059 21.734 29.1503 21.7103 29.4049C21.6389 30.1731 21.5589 31.0342 21.3465 31.8816C21.3443 31.8905 21.3419 31.8993 21.3395 31.9081C20.8403 33.6905 19.4435 35.0398 17.6907 34.9992C17.7009 34.9991 17.711 34.9989 17.7212 34.9987L17.6637 34.9985C17.6727 34.9988 17.6817 34.999 17.6907 34.9992C17.2179 35.0052 16.7399 34.8623 16.3405 34.6839C15.9225 34.4971 15.5076 34.2344 15.1621 33.9252L15.1682 33.9304L15.1554 33.9191C15.1576 33.9212 15.1599 33.9232 15.1621 33.9252L9.28665 28.8217H6.22653C5.13565 28.8217 4.17358 28.4151 3.4611 27.6524C2.7659 26.9081 2.3685 25.8919 2.23733 24.7484C2.23771 24.7513 2.23809 24.7542 2.23847 24.7571L2.2363 24.7393C2.23664 24.7423 2.23698 24.7454 2.23733 24.7484C1.90431 22.2061 1.93813 17.7095 2.23665 15.1477L2.23827 15.1338C2.50367 13.1045 3.89593 11.1803 6.22653 11.1803H9.28564L15.0328 6.1702C15.0302 6.1725 15.0277 6.1748 15.0252 6.17709L15.0394 6.16441L15.0328 6.1702C15.3807 5.85671 15.8242 5.57489 16.2593 5.37035C16.666 5.17916 17.1885 4.99685 17.6884 5.00094ZM17.6884 5.00094C17.6802 5.00114 17.6719 5.00136 17.6637 5.00162L17.7179 5.0014C17.7081 5.00117 17.6983 5.00102 17.6884 5.00094Z" />
<path fill-rule="evenodd" clip-rule="evenodd" d="M26.4862 11.1423C26.9599 10.8585 27.5741 11.0125 27.8579 11.4863C29.2148 13.7514 30 16.734 30 20.0009C30 23.268 29.2147 26.2489 27.8579 28.514C27.5741 28.9878 26.9599 29.1418 26.4862 28.858C26.0124 28.5742 25.8584 27.9601 26.1422 27.4863C27.285 25.5784 28 22.9646 28 20.0009C28 17.0372 27.285 14.4218 26.1422 12.514C25.8584 12.0402 26.0124 11.4261 26.4862 11.1423Z" />
<path fill-rule="evenodd" clip-rule="evenodd" d="M30.3316 3.25624C30.7423 2.88707 31.3746 2.9208 31.7438 3.33157C35.6595 7.68859 38 13.5232 38 19.999C38 26.4748 35.6595 32.3114 31.7438 36.6684C31.3746 37.0792 30.7423 37.1129 30.3316 36.7438C29.9208 36.3746 29.8871 35.7423 30.2562 35.3316C33.8398 31.3441 36 25.9846 36 19.999C36 14.0136 33.8399 8.65597 30.2562 4.66844C29.8871 4.25767 29.9208 3.62541 30.3316 3.25624Z" />
</svg>
