<svg width="40" height="40" viewBox="0 0 40 40" xmlns="http://www.w3.org/2000/svg">
<path fill-rule="evenodd" clip-rule="evenodd" d="M4.70294 4.97912C6.47565 3.07728 9.0092 2 12.033 2H27.9652C30.9966 2 33.5311 3.07685 35.3027 4.9795C37.0668 6.8741 38 9.50618 38 12.4943V27.5057C38 30.4938 37.0668 33.1259 35.3024 35.0206C33.5305 36.9232 30.9956 38 27.9634 38H12.033C9.00158 38 6.46749 36.9231 4.69629 35.0204C2.93262 33.1257 2 30.4937 2 27.5057V12.4943C2 9.50507 2.9375 6.87317 4.70294 4.97912ZM6.16595 6.3428C4.80293 7.8051 4 9.92034 4 12.4943V27.5057C4 30.0809 4.79954 32.196 6.1602 33.6577C7.51332 35.1113 9.49572 36 12.033 36H27.9634C30.5016 36 32.485 35.1112 33.8388 33.6575C35.2001 32.1958 36 30.0808 36 27.5057V12.4943C36 9.91923 35.2001 7.80417 33.839 6.34242C32.4854 4.88872 30.5025 4 27.9652 4H12.033C9.50464 4 7.5217 4.88829 6.16595 6.3428Z" />
<path fill-rule="evenodd" clip-rule="evenodd" d="M12.4141 12.5704C13.3587 11.557 14.6967 11 16.2508 11H23.7483C25.3056 11 26.6443 11.5566 27.5887 12.5708C28.5256 13.5769 29 14.9524 29 16.4679V23.5321C29 25.0476 28.5256 26.4231 27.5886 27.4293C26.644 28.4435 25.3051 29 23.7475 29H16.2508C14.6935 29 13.3549 28.4434 12.4107 27.4291C11.4741 26.4229 11 25.0475 11 23.5321V16.4679C11 14.9513 11.4768 13.576 12.4141 12.5704ZM13.8771 13.9341C13.3422 14.5079 13 15.3666 13 16.4679V23.5321C13 24.6347 13.341 25.4932 13.8747 26.0664C14.4008 26.6316 15.1876 27 16.2508 27H23.7475C24.8112 27 25.5986 26.6315 26.125 26.0663C26.6588 25.493 27 24.6346 27 23.5321V16.4679C27 15.3654 26.6588 14.507 26.125 13.9337C25.5987 13.3684 24.8115 13 23.7483 13H16.2508C15.1922 13 14.4048 13.368 13.8771 13.9341Z" />
</svg>
